<?xml version="1.0" encoding="utf-8"?>
<!-- Generator: Adobe Illustrator 22.1.0, SVG Export Plug-In . SVG Version: 6.00 Build 0)  -->
<svg version="1.1" id="Layer_1" xmlns="http://www.w3.org/2000/svg" xmlns:xlink="http://www.w3.org/1999/xlink" x="0px" y="0px"
	 viewBox="0 0 100 100" style="enable-background:new 0 0 100 100;" xml:space="preserve">
<style type="text/css">
	.st0{fill:#FFFFFF;}
</style>
<g>
	<g>
		<g>
			<path class="st0" d="M49.5,55.1l-2.8-4.2c-4.1-6.2-3.2-12.4-2.2-15.7c-2.8,0.1-4.6-1.6-4.6-4.4c0-1.9,0-4.2,2.1-4.2
				c0.4,0,0.8,0.1,1.3,0.3c0.6,0.2,1.4,0.4,2.5,0.4c2.2,0,3.6-0.7,3.6-1.8c0-0.7-0.8-2.6-1.7-2.6c-0.3,0-0.7,0.2-1.2,0.6
				c-2.1,1.9-4.2,2.3-5.6,2.3c-1.3,0-2.2-0.4-2.4-0.5L38,25c-1.6-1.7-2.1-5.4-1.1-7.6c0.6-1.4,1.8-2.2,3.2-2.2h0.3
				c2.2,0,4.2-1.8,7.8-5.2l0.7-0.7c1.9-1.7,3.5-2.5,5.4-2.5c1,0,1.9,0.2,2.9,0.4c1.3,0.3,2.6,0.6,4.3,0.5C67.4,7.4,72,9.3,72.2,9.4
				l3,1.3l-6.3,2.9c0.4,1.2,0.4,2.6,0.2,4.1c-0.6,4.3-3.9,10.7-11,15.6c-8.9,6.1-8.7,16.7-8.7,16.8L49.5,55.1z M49.8,30.7L48.1,34
				c-0.1,0.3-2.6,5.2-1,10.9c0.9-4.2,3.3-9.9,9.3-14c6.4-4.4,9.3-9.9,9.8-13.6c0.2-1.6,0.1-2.9-0.5-3.5l-1.2-1.4l2.8-1.3
				c-1.5-0.3-3.4-0.5-5.5-0.3c-2.1,0.1-3.8-0.2-5.1-0.5C56,10,55.2,9.8,54.5,9.8c-0.8,0-1.9,0.2-3.5,1.7l-0.7,0.7
				c-4,3.7-6.5,6-9.8,6h-0.3c-0.1,0-0.3,0-0.5,0.4c-0.5,1.2-0.2,3.3,0.4,4.3C40.3,23,40.6,23,41,23c1.2,0,2.5-0.5,3.6-1.6
				c1-0.9,2.1-1.4,3.1-1.4c3,0,4.6,3.6,4.6,5.5c0,2.2-1.7,4.7-6.5,4.7c-1.3,0-2.3-0.2-3-0.5c0,0.3,0,0.6,0,1.1
				c0,1.2,0.4,1.5,1.5,1.5c1,0,2-0.4,2-0.4L49.8,30.7z"/>
		</g>
	</g>
</g>
<g>
	<g>
		<g>
			<path class="st0" d="M54.4,86.9c-1.6,0-7.7-0.3-12.1-4.4C39.5,79.7,38,75.9,38,71c0-6,1-9.4,1.7-12c1.1-3.8,1.6-5.6-2.9-12.7
				l-1.4-2.2H38c0.2,0,6.8,0,10,3.4l-2.1,2c-1.2-1.3-3.3-1.9-5.2-2.2c3.4,6,3,8.5,1.8,12.6c-0.7,2.5-1.6,5.6-1.6,11.2
				c0,4,1.2,7.2,3.5,9.4c4.1,3.9,10.3,3.6,10.4,3.6c6.7,0,11.6-2.2,14.7-6.5c5.8-8.2,3.6-22.4,1.7-28c-1.2-3.5-1.2-6,0.3-7.4
				c1-1,2.3-1.2,3.4-1.2c-0.3-4.5-1.6-6.9-2.8-9.3c-0.6-1.2-1.2-2.4-1.7-3.7c-0.6-1.8,0-2.7,0.6-3.1c0.4-0.3,1.4-1,4.7,0.9
				c-1-8.7-6.5-12.6-6.8-12.8l1.6-2.4c0.3,0.2,8.2,5.6,8.2,18v2.9l-2.3-1.7c-1-0.8-2.1-1.5-3-1.9c0.3,0.8,0.8,1.7,1.2,2.5
				c1.5,2.8,3.2,6,3.2,12.3v2l-1.9-0.6c-0.5-0.2-1.9-0.3-2.4,0.2c-0.2,0.2-0.8,1.2,0.4,4.5c2.5,7.1,4.2,21.8-2,30.6
				c-3.6,5.1-9.3,7.7-17,7.7C54.8,86.9,54.6,86.9,54.4,86.9z"/>
		</g>
	</g>
</g>
<g>
	<g>
		<g>
			<path class="st0" d="M50.2,74.5c-2.6,0-3.7-1.4-4.2-2.4c-1.3-2.8,0.2-7,2.4-9.5c1.4-1.5,2.9-2.3,4.5-2.2
				c-0.3-1.7-0.7-3.2-0.9-4.2l2.8-0.8c0.3,1.2,3.3,12,0,16.7c-1,1.4-2.4,2.2-4.1,2.3C50.5,74.5,50.4,74.5,50.2,74.5z M52.7,63.3
				c-0.9,0-1.8,0.9-2.2,1.3c-1.7,1.9-2.6,4.9-2,6.3c0.1,0.2,0.4,0.8,1.9,0.7c0.8-0.1,1.4-0.4,1.9-1c1.1-1.6,1.2-4.6,0.9-7.5
				l-0.1,0.3C53,63.3,52.9,63.3,52.7,63.3z"/>
		</g>
	</g>
</g>
<g>
	<g>
		<g>
			<polygon class="st0" points="54.8,14.1 49,17.2 54.8,17.2 			"/>
		</g>
	</g>
</g>
<g>
	<g>
		<g>
			<path class="st0" d="M12.6,50.8l-2.5-1.4c13.7-24.7,34.1-25,35.2-25l0,0v2.9C45,27.3,25.4,27.6,12.6,50.8z"/>
		</g>
	</g>
</g>
<g>
	<g>
		<g>
			<path class="st0" d="M8.5,46.8l-2.4-1.6c14.2-20.6,35.3-20.4,36.2-20.4l-0.1,2.9C42.1,27.7,21.8,27.5,8.5,46.8z"/>
		</g>
	</g>
</g>
<g>
	<g>
		<g>
			<path class="st0" d="M61.9,62.1l-3-1.1c-10.8-4-11.5-16.4-11.5-16.9l2.9-0.1c0,0.4,0.5,8.7,6.9,12.9c-1.1-4.4-2.1-12.4,2.1-17.6
				c2-2.5,3.9-4.1,5.6-5.5c2.7-2.2,4.5-3.7,5.2-7.9l2.8,0.5c-0.9,5.2-3.4,7.3-6.2,9.6c-1.6,1.3-3.3,2.8-5.2,5.1
				c-5,6.1-0.7,18-0.7,18.1L61.9,62.1z"/>
		</g>
	</g>
</g>
<g>
	<g>
		<g>
			<path class="st0" d="M73,62.4L70.2,62c-0.4-0.1-9.6-1.4-13.6-8l2.5-1.5c2.1,3.5,6.2,5.3,8.8,6.1c-3.7-10.4,3-16,3.1-16.1l1.8,2.2
				L72,43.6l0.9,1.1c-0.3,0.2-6.2,5.3-1.2,15.2L73,62.4z"/>
		</g>
	</g>
</g>
<g>
	<g>
		<g>
			<path class="st0" d="M86,93.2H23.8l-0.1-1.4c0-0.2-0.3-5.4,3.1-8.9c1.9-2,4.6-3.1,8-3.1c3.5,0,6.4,0.9,9.5,1.9
				c3.2,1,6.5,2.1,10.6,2.1s7.4-1.1,10.6-2.1c3.1-1,6-1.9,9.5-1.9c3.4,0,6.1,1,8,3.1c3.3,3.5,3.1,8.7,3.1,8.9L86,93.2z M26.6,90.3
				h56.5c-0.2-1.5-0.7-3.8-2.2-5.5c-1.4-1.4-3.3-2.2-5.9-2.2c-3,0-5.8,0.9-8.7,1.8c-3.2,1-6.9,2.2-11.5,2.2s-8.2-1.2-11.5-2.2
				c-2.9-0.9-5.6-1.8-8.6-1.8c-2.5,0-4.5,0.7-5.9,2.2C27.3,86.5,26.8,88.8,26.6,90.3z"/>
		</g>
	</g>
</g>
<g>
	<g>
		<g>
			<path class="st0" d="M93.4,93.2H79.6v-2.9H90c-1.1-4.8-3.1-7.9-6.2-9.3c-6.5-2.9-15.5,2.8-15.6,2.8l-1.6-2.4
				c0.4-0.3,10.4-6.6,18.3-3c4.3,1.9,7.1,6.3,8.2,13.1L93.4,93.2z"/>
		</g>
	</g>
</g>
<g>
	<g>
		<g>
			<path class="st0" d="M31.8,93.2H16.7v-1.4c0-6.2,1.9-10.6,5.6-12.9c8.1-5,21.6,1.5,22.2,1.8l-1.3,2.6c-0.1-0.1-12.7-6.1-19.4-1.9
				c-2.6,1.6-4,4.6-4.2,9h12.2L31.8,93.2L31.8,93.2z"/>
		</g>
	</g>
</g>
<g>
	<g>
		<g>
			<path class="st0" d="M82.1,72l-2.8-0.5c0.2-1,0.3-1.9,0.5-2.9l2.9,0.4C82.5,70,82.3,71,82.1,72z"/>
		</g>
	</g>
</g>
<g>
	<g>
		<g>
			<path class="st0" d="M83.1,64.3l-2.9-0.1c0.5-9.6-1.9-15-1.9-15l2.6-1.2C81,48.2,83.6,54,83.1,64.3z"/>
		</g>
	</g>
</g>
</svg>
