<?xml version="1.0" encoding="utf-8"?>
<!-- Generator: Adobe Illustrator 22.1.0, SVG Export Plug-In . SVG Version: 6.00 Build 0)  -->
<svg version="1.1" id="Calque_1" xmlns="http://www.w3.org/2000/svg" xmlns:xlink="http://www.w3.org/1999/xlink" x="0px" y="0px"
	 viewBox="0 0 20 20" style="enable-background:new 0 0 20 20;" xml:space="preserve">
<style type="text/css">
	.st0{fill:#FFFFFF;}
</style>
<g>
	<rect x="15" y="13.7" class="st0" width="1.2" height="3.5"/>
	<rect x="13.8" y="14.8" class="st0" width="3.5" height="1.2"/>
</g>
<path class="st0" d="M2.6,6.8v7.4c0,0.6,0.4,1,1,1h8.9c0.5,0,1-0.5,1-1V6.8H2.6z M5.4,14.5h-2v-2h2V14.5z M5.4,12h-2v-2h2V12z
	 M5.4,9.5h-2v-2h2V9.5z M7.8,14.5h-2v-2h2L7.8,14.5L7.8,14.5z M7.8,12h-2v-2h2L7.8,12L7.8,12z M7.8,9.5h-2v-2h2L7.8,9.5L7.8,9.5z
	 M10.3,14.5h-2v-2h2L10.3,14.5L10.3,14.5z M10.3,12h-2v-2h2L10.3,12L10.3,12z M10.3,9.5h-2v-2h2L10.3,9.5L10.3,9.5z M12.8,14.5h-2
	v-2h2V14.5z M12.8,12h-2v-2h2V12z M12.8,9.5h-2v-2h2V9.5z"/>
<path class="st0" d="M12.6,4.3h-1.6V3.2c0-0.2-0.2-0.4-0.4-0.4c-0.2,0-0.4,0.2-0.4,0.4v1.1H6V3.2C6,3,5.8,2.8,5.6,2.8
	C5.4,2.8,5.2,3,5.2,3.2v1.1H3.6c-0.5,0-1,0.4-1,1v0.9l0,0v0.1h10.9V6.2l0,0V5.3C13.5,4.7,13.1,4.3,12.6,4.3z M5.6,6
	C5.2,6,4.9,5.7,4.9,5.3C4.9,5,5,4.8,5.2,4.6v0.6c0,0.2,0.2,0.4,0.4,0.4C5.8,5.7,6,5.5,6,5.3V4.6C6.2,4.8,6.4,5,6.4,5.3
	C6.4,5.7,6,6,5.6,6z M10.6,6c-0.4,0-0.7-0.3-0.7-0.7c0-0.3,0.2-0.5,0.4-0.6v0.6c0,0.2,0.2,0.4,0.4,0.4c0.2,0,0.4-0.2,0.4-0.4V4.6
	c0.2,0.1,0.4,0.4,0.4,0.6C11.3,5.7,11,6,10.6,6z"/>
</svg>
