<?xml version="1.0" encoding="utf-8"?>
<!-- Generator: Adobe Illustrator 22.1.0, SVG Export Plug-In . SVG Version: 6.00 Build 0)  -->
<svg version="1.1" id="Calque_1" xmlns="http://www.w3.org/2000/svg" xmlns:xlink="http://www.w3.org/1999/xlink" x="0px" y="0px"
	 viewBox="0 0 20 20" style="enable-background:new 0 0 20 20;" xml:space="preserve">
<style type="text/css">
	.st0{fill:#FFFFFF;}
</style>
<path class="st0" d="M1.2,6.4v12c0,0.9,0.7,1.6,1.6,1.6h14.4c0.9,0,1.6-0.7,1.6-1.6v-12H1.2z M5.6,18.8H2.4v-3.2h3.2V18.8z
	 M5.6,14.8H2.4v-3.2h3.2V14.8z M5.6,10.8H2.4V7.6h3.2V10.8z M9.6,18.8H6.4v-3.2h3.2L9.6,18.8L9.6,18.8z M9.6,14.8H6.4v-3.2h3.2
	L9.6,14.8L9.6,14.8z M9.6,10.8H6.4V7.6h3.2L9.6,10.8L9.6,10.8z M13.6,18.8h-3.2v-3.2h3.2L13.6,18.8L13.6,18.8z M13.6,14.8h-3.2v-3.2
	h3.2L13.6,14.8L13.6,14.8z M13.6,10.8h-3.2V7.6h3.2L13.6,10.8L13.6,10.8z M17.6,18.8h-3.2v-3.2h3.2V18.8z M17.6,14.8h-3.2v-3.2h3.2
	V14.8z M17.6,10.8h-3.2V7.6h3.2V10.8z"/>
<path class="st0" d="M17.2,2.4h-2.6V0.6C14.6,0.3,14.3,0,14,0s-0.6,0.3-0.6,0.6v1.8H6.6V0.6C6.6,0.3,6.3,0,6,0S5.4,0.3,5.4,0.6v1.8
	H2.8C1.9,2.4,1.2,3.1,1.2,4v1.4l0,0v0.2h17.6V5.4l0,0V4C18.8,3.1,18.1,2.4,17.2,2.4z M6,5.2C5.3,5.2,4.8,4.7,4.8,4
	c0-0.4,0.2-0.8,0.6-1v1c0,0.3,0.3,0.6,0.6,0.6S6.6,4.3,6.6,4V3C7,3.2,7.2,3.6,7.2,4C7.2,4.7,6.7,5.2,6,5.2z M14,5.2
	c-0.7,0-1.2-0.5-1.2-1.2c0-0.4,0.2-0.8,0.6-1v1c0,0.3,0.3,0.6,0.6,0.6s0.6-0.3,0.6-0.6V3c0.4,0.2,0.6,0.6,0.6,1
	C15.2,4.7,14.7,5.2,14,5.2z"/>
</svg>
