<?xml version="1.0" encoding="utf-8"?>
<!-- Generator: Adobe Illustrator 22.1.0, SVG Export Plug-In . SVG Version: 6.00 Build 0)  -->
<svg version="1.1" id="Calque_1" xmlns="http://www.w3.org/2000/svg" xmlns:xlink="http://www.w3.org/1999/xlink" x="0px" y="0px"
	 viewBox="0 0 20 20" style="enable-background:new 0 0 20 20;" xml:space="preserve">
<style type="text/css">
	.st0{fill:#6F7A8B;stroke:#6F7A8B;stroke-width:0.5;stroke-miterlimit:10;}
</style>
<path class="st0" d="M17.7,10c0-1.2-0.3-2.3-0.7-3.3c0,0,0,0,0,0c-0.2-0.5-0.5-0.9-0.8-1.3c0,0,0,0,0,0c-1.4-1.9-3.7-3.1-6.2-3.1
	c-2.3,0-4.4,1-5.8,2.7c0,0,0,0,0,0C3.9,5.3,3.6,5.7,3.4,6c0,0,0,0,0,0C3.3,6.1,3.3,6.2,3.2,6.3c0,0,0,0,0,0.1c0,0.1-0.1,0.2-0.1,0.2
	c0,0,0,0.1,0,0.1C3,6.8,3,6.8,2.9,6.9c0,0,0,0.1-0.1,0.1c0,0,0,0.1,0,0.1C2.8,7.3,2.7,7.5,2.7,7.7c0,0,0,0,0,0
	c0,0.1-0.1,0.2-0.1,0.3c0,0,0,0,0,0.1c0,0.1,0,0.2-0.1,0.2c0,0,0,0.1,0,0.1c0,0.1,0,0.2,0,0.2c0,0,0,0.1,0,0.1c0,0.1,0,0.1,0,0.2
	c0,0.1,0,0.1,0,0.2c0,0.1,0,0.1,0,0.2c0,0.1,0,0.1,0,0.2c0,0.1,0,0.1,0,0.2c0,0.1,0,0.2,0,0.4c0,0.2,0,0.3,0,0.5c0,0,0,0.1,0,0.1
	c0,0.1,0,0.2,0,0.3c0,0,0,0.1,0,0.1c0,0,0,0,0,0c0.2,1.6,0.9,3.1,2,4.2c0,0,0,0,0,0c0.1,0.1,0.1,0.1,0.2,0.2c0,0,0,0,0,0
	c0.2,0.2,0.3,0.3,0.5,0.4c0,0,0,0,0,0c1.3,1.1,3.1,1.8,5,1.8c2.5,0,4.7-1.2,6.1-3c0,0,0,0,0,0c0.3-0.4,0.6-0.8,0.8-1.3c0,0,0,0,0,0
	C17.4,12.4,17.7,11.2,17.7,10z M15.8,7.9c0,0.1,0.1,0.1,0.1,0.2c0.2,0.2,0.4,0.4,0.3,0.7c0,0.1-0.1,0.1-0.2,0.1
	c-0.1,0.1-0.3,0.1-0.4,0.3c-0.1,0.2,0,0.4,0,0.6c0,0.1,0.1,0.2,0.1,0.2c0,0.2-0.1,0.3-0.2,0.4c0,0,0,0-0.1,0l-0.1,0
	c-0.1,0-0.1,0-0.2,0c-0.3,0.1-0.3,0.3-0.3,0.4c0,0.1,0,0.3-0.1,0.4c0,0,0-0.1,0-0.1c0-0.1-0.1-0.3-0.2-0.5c0-0.1-0.1-0.3-0.4-0.3
	c-0.1,0-0.2,0.1-0.3,0.1c-0.2,0.1-0.3,0.3-0.3,0.5c0,0,0,0.1-0.1,0.1c0,0-0.1-0.2-0.1-0.3c0-0.1,0-0.2-0.1-0.2
	c-0.1-0.2-0.2-0.3-0.5-0.4c-0.2,0-0.5,0.2-0.7,0.4c-0.1,0.1-0.2,0.2-0.2,0.2c-0.1,0.1-0.1,0.1-0.2,0.1c0,0,0,0,0,0
	c0,0,0-0.1-0.1-0.1c-0.1-0.1-0.2-0.3-0.4-0.4c-0.2-0.1-0.4,0-0.6,0.1c-0.1,0.1-0.1,0.3-0.1,0.6c0.1,0.4,0.3,0.7,0.5,1
	c0.1,0.1,0.1,0.4-0.5,1.6l-0.1,0.1c-0.1,0.2-0.2,0.4-0.3,0.5l-0.1,0c0,0-0.1,0.1-0.1,0.1c0,0,0,0-0.1,0c-0.1-0.1-0.3-0.6-0.3-0.9
	c0-0.1,0-0.1,0-0.2c0-0.1,0-0.2,0-0.3c0,0,0-0.1,0-0.1c0-0.1-0.1-0.2-0.1-0.3c0-0.1,0.1-0.4,0-0.6C9.3,12,9.2,11.9,9,11.9
	c0,0,0,0-0.1,0c0,0-0.1,0-0.2,0c-0.1,0-0.1,0-0.2,0c0,0-0.1,0-0.1,0c-0.1,0-0.1,0-0.2,0c-0.1,0-0.3-0.3-0.4-0.4c0-0.1,0-0.3,0-0.4
	c0-0.1,0.1-0.1,0.2-0.2C8.1,11.1,8.2,11,8.2,11c0.1-0.1,0.1-0.1,0.1-0.2c0-0.1,0-0.1,0.1-0.1c0,0,0,0,0,0c0,0,0,0,0,0
	c0,0,0.1,0,0.2,0c0.1,0,0.2-0.1,0.3-0.1c0.1,0,0.1-0.1,0.2-0.1c0,0,0,0,0,0l0,0l0,0.1c0,0.2,0.3,0.5,0.6,0.5c0.1,0,0.2,0,0.2-0.1
	c0.1-0.1,0.2-0.1,0.2-0.1c0.1,0,0.1-0.1,0.2-0.1c0.5-0.2,0.7-0.6,0.6-1.1c-0.1-0.5-0.5-0.9-0.9-0.9c-0.2,0-0.3,0.1-0.4,0.2
	c-0.2,0.2,0,0.5,0.1,0.6c0,0,0.1,0.1,0.1,0.2C9.7,9.6,9.5,9.4,9.5,9.4C9.3,9.2,9.3,9.2,9.1,9.2l0,0c-0.2,0-0.4,0.2-0.5,0.4
	C8.6,9.6,8.5,9.7,8.5,9.7c-0.1,0-0.1-0.1-0.1-0.1v0c0,0,0,0,0,0c0,0,0,0,0.1-0.1C8.8,9.3,8.7,9,8.6,8.9c0,0,0,0,0-0.1
	c0.1,0,0.2,0,0.3,0c0.1,0,0.3,0,0.4-0.1c0.5-0.1,0.7-0.4,0.9-0.6c0,0,0.1-0.1,0.1-0.1c0.1-0.1,0.2-0.3,0.1-0.5
	C10.3,7.3,10,7.1,9.8,7.1c0,0,0,0,0,0c-0.5,0-0.6,0.4-0.7,0.6c0,0,0,0.1,0,0.1C9,7.7,9,7.6,9,7.5c0-0.3,0.3-0.8,0.8-0.8
	c0.1,0,0.3,0.1,0.4,0.3c0.2,0.1,0.3,0.2,0.4,0.2c0.1,0,0.1,0,0.2-0.1C11,7,11,6.8,11,6.6c0-0.1,0-0.2,0-0.2c0-0.1,0.1-0.2,0.2-0.3
	c0,0.1,0,0.2,0,0.2c0,0.1,0,0.2,0,0.3c0,0.4,0.6,0.6,0.8,0.4c0.2-0.1,0.2-0.3,0.2-0.5c0.1,0,0.2,0,0.2,0c0.5,0,0.6-0.6,0.7-0.9
	c0-0.1,0-0.2,0.1-0.3c0.1,0.1,0.2,0.2,0.3,0.3c0.1,0.1,0.2,0.2,0.2,0.3c0.1,0.1,0.2,0.1,0.3,0.1l0,0c0.4,0,1.2-0.2,1.9-0.3l0.1,0
	c0,0,0.1,0.1,0.1,0.1C16.1,6,16.1,6,16.2,6.1c0.1,0.1,0.1,0.2,0.2,0.3c0,0.1,0.1,0.2,0.1,0.2c0,0,0,0.1,0.1,0.1
	c-0.1,0.1-0.2,0.2-0.3,0.3c0,0-0.1,0.1-0.1,0.1C15.9,7.4,15.8,7.7,15.8,7.9z M5.3,6.8C5.4,6.8,5.5,6.9,5.6,7c0.1,0.2,0,0.2,0,0.2
	c0,0,0,0-0.1,0C5.4,7.2,5.3,7.1,5.1,7C5,6.9,4.8,6.8,4.7,6.8C4,6.7,3.6,7.6,3.6,7.8C3.5,8.1,3.6,8.4,3.9,8.5c0,0,0.1,0,0.2,0
	c0.2,0,0.4-0.1,0.6-0.2c0.1-0.1,0.2-0.1,0.2-0.1c0.1,0,0.3,0.1,0.5,0.3c0.1,0.2,0.1,0.3,0.1,0.3c0,0-0.1,0-0.2,0
	c-0.1,0-0.3,0-0.5,0.1C4.6,9.1,4.6,9.3,4.5,9.4c0,0.1-0.1,0.2-0.1,0.2C4.1,9.8,4,9.8,3.8,9.9c-0.1,0-0.3,0.1-0.4,0.3
	c-0.2,0.2-0.1,0.4-0.1,0.5c0.2,0.5,1,0.7,1.9,1c0.1,0,0.2,0,0.2,0.1c0,0,0,0,0,0c0,0.2,0,0.4,0.2,0.5c0.1,0.1,0.3,0.1,0.4,0.1
	c0.2,0,0.4,0.1,0.5,0.2c0.1,0.2-0.5,0.9-0.8,1.2c-0.2,0.2-0.3,0.4-0.4,0.5C5.1,14.5,5,14.9,5,15.3c-0.1-0.1-0.2-0.2-0.3-0.3
	c0-0.2,0-0.4,0-0.6c0-0.4,0.1-0.9,0-1.2c-0.1-0.4-0.3-0.5-0.4-0.6c-0.1-0.1-0.1-0.1-0.2-0.2c0-0.1,0-0.2,0-0.3c0-0.1,0-0.3,0-0.5
	c-0.1-0.3-0.4-0.4-0.7-0.5C3.2,11.1,3,11,2.8,10.8c0,0,0,0,0-0.1c0-0.1,0-0.2,0-0.3c0,0,0-0.1,0-0.1c0-0.1,0-0.3,0-0.4
	c0-0.1,0-0.2,0-0.3c0,0,0-0.1,0-0.1c0-0.1,0-0.1,0-0.2c0-0.1,0-0.1,0-0.2c0-0.1,0-0.1,0-0.1c0-0.1,0-0.1,0-0.2c0,0,0-0.1,0-0.1
	c0-0.1,0-0.1,0-0.2c0,0,0-0.1,0-0.1c0-0.1,0-0.2,0.1-0.2c0,0,0,0,0,0C3,7.8,3.1,7.6,3.2,7.3c0,0,0-0.1,0-0.1c0,0,0-0.1,0.1-0.1
	c0-0.1,0.1-0.1,0.1-0.2c0,0,0-0.1,0.1-0.1c0-0.1,0.1-0.1,0.1-0.2c0,0,0,0,0-0.1c0-0.1,0.1-0.2,0.1-0.3c0,0,0,0,0,0
	C4,5.9,4.2,5.6,4.4,5.3c0.1,0,0.2-0.1,0.4-0.1c0.1,0,0.3-0.1,0.4-0.1c0.1,0,0.2-0.1,0.3-0.1C5.8,5,6,4.9,6.2,4.9c0,0,0,0,0,0
	c0,0,0.1,0,0.1,0C6.3,5,6,5.1,5.9,5.2C5.4,5.5,5,5.7,4.9,6.1C4.9,6.4,5.2,6.6,5.3,6.8z M3.8,12.6c0.1,0.2,0.2,0.3,0.3,0.4
	c0.1,0.1,0.2,0.2,0.3,0.4c0.1,0.2,0,0.7,0,1.1c0,0.1,0,0.1,0,0.2c-0.7-0.9-1.3-2-1.5-3.2c0.1,0.1,0.3,0.1,0.4,0.2
	c0.2,0.1,0.4,0.2,0.5,0.3c0,0.1,0,0.1,0,0.2C3.7,12.2,3.7,12.4,3.8,12.6z M10,17.3c-1.8,0-3.4-0.6-4.6-1.7c0-0.3,0.1-0.9,0.3-1.2
	C5.7,14.3,5.9,14.2,6,14c0.5-0.6,1-1.2,0.8-1.7C6.7,12,6.4,12,6.1,11.9c-0.1,0-0.2,0-0.2-0.1c0,0,0-0.1,0-0.1c0-0.1,0-0.3-0.2-0.4
	c-0.1,0-0.2-0.1-0.3-0.1c-0.4-0.1-1.5-0.4-1.6-0.7c0,0,0,0,0-0.1c0.1-0.1,0.1-0.1,0.2-0.1c0.1,0,0.3-0.1,0.6-0.3
	c0.1-0.1,0.2-0.3,0.3-0.4C4.9,9.5,5,9.4,5,9.3c0,0,0.1,0,0.2,0c0.2,0,0.5,0,0.6-0.3c0.1-0.2,0-0.5-0.2-0.7C5.5,8,5.2,7.8,4.9,7.8
	c-0.1,0-0.1,0-0.2,0c-0.1,0-0.2,0.1-0.3,0.2C4.3,8,4.1,8.1,4,8.1C4,8.1,4,8,4,7.9c0-0.1,0.3-0.7,0.6-0.7c0,0,0,0,0.1,0
	c0.1,0,0.2,0.1,0.3,0.2c0.2,0.1,0.4,0.3,0.6,0.3l0,0c0.2,0,0.4-0.1,0.4-0.2C6,7.3,6,7.1,6,6.9C5.9,6.7,5.7,6.6,5.6,6.4
	C5.4,6.3,5.3,6.2,5.4,6.1c0-0.1,0.5-0.4,0.7-0.5c0.4-0.2,0.6-0.3,0.7-0.5c0-0.1,0.1-0.2,0-0.4C6.7,4.5,6.4,4.5,6.2,4.5c0,0,0,0,0,0
	C6,4.5,5.7,4.6,5.4,4.7c-0.1,0-0.2,0.1-0.3,0.1c0,0-0.1,0-0.1,0C6.2,3.5,8,2.7,10,2.7c2.3,0,4.3,1.1,5.7,2.7
	c-0.6,0.1-1.4,0.3-1.7,0.3l0,0c0,0,0,0,0,0c-0.1-0.1-0.1-0.1-0.2-0.2C13.6,5.3,13.4,5,13.1,5c0,0,0,0,0,0c-0.3,0-0.3,0.3-0.4,0.6
	c0,0.2-0.1,0.6-0.3,0.6c0,0-0.1,0-0.2-0.1c0,0-0.1,0-0.1,0c-0.2,0-0.3,0.3-0.3,0.4c0,0.1,0,0.2,0,0.2c-0.1,0-0.2-0.1-0.2-0.1
	c0,0,0-0.1,0-0.2c0-0.2,0.1-0.5,0-0.7c-0.1-0.1-0.2-0.2-0.3-0.2c-0.3,0-0.6,0.6-0.6,0.6c-0.1,0.1-0.1,0.3,0,0.4c0,0,0,0,0,0.1
	c0,0-0.1,0-0.1-0.1c-0.2-0.1-0.4-0.3-0.7-0.3c-0.7,0-1.2,0.6-1.3,1.2c0,0.4,0.1,0.6,0.4,0.7c0,0,0.1,0,0.1,0c0.3,0,0.4-0.2,0.4-0.4
	c0.1-0.2,0.1-0.3,0.3-0.3c0.1,0,0.2,0.1,0.3,0.2c0,0,0,0,0,0C10,7.8,9.9,7.8,9.9,7.9C9.7,8.1,9.6,8.2,9.2,8.4c-0.1,0-0.2,0-0.4,0
	c-0.3,0-0.6,0-0.6,0.2c-0.1,0.1,0,0.3,0,0.4c0,0,0,0,0,0.1C8,9.3,7.9,9.4,7.9,9.6l0,0c0,0.2,0.2,0.5,0.5,0.5c0.2,0,0.4-0.2,0.5-0.3
	c0-0.1,0.1-0.1,0.2-0.2c0,0,0,0,0,0c0.3,0.2,0.5,0.4,0.7,0.4c0.1,0,0.2,0,0.3-0.1c0.2-0.3,0-0.6-0.1-0.8c0,0,0-0.1-0.1-0.1
	c0.2-0.1,0.5,0.2,0.6,0.6c0,0.2,0,0.5-0.4,0.6c-0.1,0-0.1,0.1-0.2,0.1c-0.1,0-0.1,0.1-0.2,0.1c-0.1,0-0.2,0-0.2-0.1l0-0.1
	c0-0.2-0.1-0.3-0.3-0.3c-0.2-0.1-0.3,0-0.5,0.1c-0.1,0-0.1,0.1-0.1,0.1c0,0-0.1,0-0.1,0c-0.1,0-0.2,0-0.3,0.1
	C8.1,10.4,8,10.5,8,10.6c0,0.1,0,0.1-0.1,0.1c0,0-0.1,0.1-0.1,0.1c-0.1,0.1-0.2,0.2-0.3,0.3c-0.1,0.2-0.1,0.5,0,0.7
	C7.6,12,8,12.5,8.2,12.5c0.1,0,0.2,0,0.4,0c0,0,0.1,0,0.1,0c0.1,0,0.1,0,0.2,0c0.1,0,0.1,0,0.1,0c0,0,0,0,0,0s0,0,0,0
	c0,0,0,0.1,0,0.2C9,12.8,9,13,9.1,13.1c0,0,0,0.1,0,0.1c0,0.1,0,0.1,0,0.3c0,0.1,0,0.1,0,0.2c0,0.2,0.2,0.9,0.5,1.1
	c0.1,0.1,0.2,0.2,0.3,0.2c0.2,0,0.3-0.1,0.4-0.2l0,0c0.2-0.1,0.3-0.4,0.5-0.6l0.1-0.1c0.4-0.8,0.8-1.7,0.5-2.1
	c-0.2-0.2-0.3-0.5-0.4-0.8c0-0.1,0-0.2,0-0.2c0,0,0.1,0,0.1,0c0.1,0,0.2,0.1,0.2,0.2c0.1,0.1,0.2,0.3,0.3,0.3c0,0,0,0,0.1,0
	c0.1,0,0.2-0.1,0.3-0.1c0,0,0.1-0.1,0.1-0.1c0.1-0.1,0.2-0.2,0.3-0.3c0.1-0.1,0.3-0.3,0.3-0.3c0.1,0,0.1,0,0.2,0.1c0,0,0,0.1,0,0.1
	c0,0.2,0.1,0.6,0.5,0.6c0.3,0,0.4-0.2,0.5-0.4c0-0.1,0.1-0.2,0.2-0.3c0,0,0.1,0,0.1-0.1c0,0,0,0,0,0.1c0.1,0.2,0.2,0.4,0.2,0.5
	c0.1,0.2,0.1,0.3,0.3,0.4c0.2,0.1,0.3,0,0.4-0.1c0.2-0.2,0.2-0.6,0.2-0.8c0,0,0,0,0,0l0.1,0c0.1,0,0.2,0,0.3-0.1
	c0.2-0.2,0.3-0.4,0.4-0.7c0-0.1,0-0.3-0.1-0.4c0-0.1-0.1-0.2-0.1-0.3c0,0,0.1-0.1,0.2-0.1c0.2-0.1,0.4-0.2,0.5-0.4
	c0.2-0.6-0.2-1-0.4-1.2c0,0,0,0,0,0c0-0.1,0.1-0.2,0.2-0.3c0,0,0.1-0.1,0.1-0.1c0.1-0.1,0.1-0.1,0.2-0.2C17.1,8,17.3,9,17.3,10
	c0,1-0.2,1.9-0.6,2.8c0-0.1-0.1-0.2-0.3-0.2c-0.3,0-0.5,0-0.7,0c-0.2,0.1-0.3,0.2-0.4,0.2c0,0-0.1,0.1-0.1,0.1c0,0-0.1,0.1-0.1,0.1
	c-0.1,0.1-0.1,0.1-0.2,0.1c0,0-0.1,0-0.1,0c-0.1,0-0.3,0-0.4,0.2c0,0-0.4,0.9,0,1.1c0.1,0,0.2,0.1,0.2,0.1c0.2,0,0.3-0.1,0.5-0.1
	c0.1,0,0.1-0.1,0.2-0.1l0.1,0c0,0,0.1,0,0.1,0c0,0,0,0,0,0c0,0,0.1,0.1,0.1,0.2c0,0,0,0,0,0C14.4,16.2,12.3,17.3,10,17.3z
	 M16.4,13.4c0,0-0.1,0.1-0.1,0.1c-0.1,0.1-0.2,0.3-0.3,0.4c0,0,0,0.1-0.1,0.1c0,0,0,0.1-0.1,0.1c-0.1-0.1-0.1-0.1-0.2-0.2
	c-0.1-0.1-0.2-0.1-0.4,0l-0.1,0c-0.1,0-0.2,0.1-0.3,0.1c-0.1,0-0.2,0.1-0.3,0.1c0-0.1,0-0.5,0.1-0.6c0,0,0.1,0,0.1,0
	c0.1,0,0.2,0,0.2-0.1c0.1-0.1,0.2-0.1,0.2-0.2c0,0,0.1-0.1,0.1-0.1c0,0,0.1-0.1,0.1-0.1c0.1-0.1,0.1-0.1,0.2-0.1c0.1,0,0.2,0,0.3,0
	c0.1,0,0.2,0,0.2,0c0,0,0,0.1,0,0.1c0,0.1,0,0.2,0.1,0.3C16.5,13.3,16.5,13.3,16.4,13.4C16.5,13.4,16.4,13.4,16.4,13.4z"/>
</svg>
