<?xml version="1.0" encoding="utf-8"?>
<!-- Generator: Adobe Illustrator 22.1.0, SVG Export Plug-In . SVG Version: 6.00 Build 0)  -->
<svg version="1.1" id="Calque_1" xmlns="http://www.w3.org/2000/svg" xmlns:xlink="http://www.w3.org/1999/xlink" x="0px" y="0px"
	 viewBox="0 0 20 20" style="enable-background:new 0 0 20 20;" xml:space="preserve">
<style type="text/css">
	.st0{fill:#FFFFFF;}
</style>
<path class="st0" d="M12.1,11.6h7.3v6.5c0,0.5-0.4,0.8-0.8,0.8H1.4c-0.5,0-0.8-0.4-0.8-0.8v-6.5H8v0.2h0.3v1.7
	c0,0.5,0.4,0.8,0.8,0.8H11c0.5,0,0.8-0.4,0.8-0.8v-1.7h0.3V11.6L12.1,11.6z M19.9,4.7v5.1c0,0.5-0.4,0.8-0.8,0.8H0.8
	C0.4,10.7,0,10.3,0,9.9V4.7c0-0.5,0.4-0.8,0.8-0.8h5.6V2.3c0-0.7,0.5-1.2,1.2-1.2h4.6c0.7,0,1.2,0.5,1.2,1.2v1.6H19
	C19.6,3.9,19.9,4.3,19.9,4.7z M11.8,2.7H8.1v1.2h3.7V2.7z"/>
</svg>
