<?xml version="1.0" encoding="utf-8"?>
<!-- Generator: Adobe Illustrator 22.1.0, SVG Export Plug-In . SVG Version: 6.00 Build 0)  -->
<svg version="1.1" id="Calque_1" xmlns="http://www.w3.org/2000/svg" xmlns:xlink="http://www.w3.org/1999/xlink" x="0px" y="0px"
	 viewBox="0 0 20 20" style="enable-background:new 0 0 20 20;" xml:space="preserve">
<style type="text/css">
	.st0{fill:#FFFFFF;}
</style>
<g>
	<g>
		<g>
			<g>
				<path class="st0" d="M11.9,7.2H5.2c-0.4,0-0.8-0.3-0.8-0.8V3c0-0.4,0.3-0.8,0.8-0.8h6.8c0.4,0,0.8,0.3,0.8,0.8v3.3
					C12.7,6.8,12.4,7.2,11.9,7.2z"/>
			</g>
		</g>
		<g>
			<g>
				<path class="st0" d="M15.6,9.1H4.4C4.2,9.1,4.1,9,4.1,8.8c0-0.2,0.1-0.3,0.3-0.3h11.2c0.2,0,0.3,0.1,0.3,0.3
					C15.9,9,15.8,9.1,15.6,9.1z"/>
			</g>
			<g>
				<path class="st0" d="M15.6,11.4H4.4c-0.2,0-0.3-0.1-0.3-0.3c0-0.2,0.1-0.3,0.3-0.3h11.2c0.2,0,0.3,0.1,0.3,0.3
					C15.9,11.2,15.8,11.4,15.6,11.4z"/>
			</g>
			<g>
				<path class="st0" d="M15.6,13.6H4.4c-0.2,0-0.3-0.1-0.3-0.3S4.2,13,4.4,13h11.2c0.2,0,0.3,0.1,0.3,0.3S15.8,13.6,15.6,13.6z"/>
			</g>
			<g>
				<path class="st0" d="M15.6,15.9H4.4c-0.2,0-0.3-0.1-0.3-0.3c0-0.2,0.1-0.3,0.3-0.3h11.2c0.2,0,0.3,0.1,0.3,0.3
					C15.9,15.8,15.8,15.9,15.6,15.9z"/>
			</g>
			<g>
				<path class="st0" d="M15.6,18.2H4.4c-0.2,0-0.3-0.1-0.3-0.3c0-0.2,0.1-0.3,0.3-0.3h11.2c0.2,0,0.3,0.1,0.3,0.3
					C15.9,18,15.8,18.2,15.6,18.2z"/>
			</g>
		</g>
		<path class="st0" d="M17.4,3.2l-3-3C14.2,0.1,14.1,0,13.9,0L3.5,0c-0.6,0-1,0.5-1,1V19c0,0.6,0.5,1,1,1h13c0.6,0,1-0.5,1-1V3.6
			C17.5,3.5,17.5,3.3,17.4,3.2z M16.9,19c0,0.2-0.2,0.4-0.4,0.4h-13c-0.2,0-0.4-0.2-0.4-0.4V1c0-0.2,0.2-0.4,0.4-0.4h10.2
			c0.1,0,0.1,0.1,0.1,0.1V3c0,0.5,0.4,0.8,0.8,0.8h2.2c0.1,0,0.1,0.1,0.1,0.1L16.9,19L16.9,19z"/>
	</g>
</g>
</svg>
