<?xml version="1.0" encoding="utf-8"?>
<!-- Generator: Adobe Illustrator 22.1.0, SVG Export Plug-In . SVG Version: 6.00 Build 0)  -->
<svg version="1.1" id="Calque_1" xmlns="http://www.w3.org/2000/svg" xmlns:xlink="http://www.w3.org/1999/xlink" x="0px" y="0px"
	 viewBox="0 0 20 20" style="enable-background:new 0 0 20 20;" xml:space="preserve">
<style type="text/css">
	.st0{fill:#FFFFFF;}
</style>
<path class="st0" d="M4.5,13.6c0.9,0,1.8-0.3,2.4-0.9l5.2,2.5c-0.6,1.9,0.4,3.9,2.2,4.6c1.9,0.6,3.9-0.4,4.6-2.2
	c0.6-1.9-0.4-3.9-2.2-4.6c-1.3-0.4-2.7-0.1-3.7,0.8l-5.2-2.5c0.3-0.8,0.3-1.8-0.1-2.6l5.1-2.5c1.4,1.4,3.7,1.5,5.1,0.1
	c1.4-1.4,1.5-3.7,0.1-5.1C16.8-0.3,14.5-0.4,13,1c-1,0.9-1.4,2.3-1,3.6L6.7,7.2C5.2,6,2.9,6.2,1.7,7.7c-1.3,1.5-1,3.8,0.5,5.1
	C2.8,13.3,3.6,13.6,4.5,13.6L4.5,13.6L4.5,13.6z M15.5,14.5c1,0,1.9,0.8,1.9,1.9s-0.8,1.9-1.9,1.9c-1,0-1.9-0.8-1.9-1.9l0,0
	C13.6,15.3,14.5,14.5,15.5,14.5C15.5,14.5,15.5,14.5,15.5,14.5z M15.5,1.8c1,0,1.9,0.8,1.9,1.9s-0.8,1.9-1.9,1.9
	c-1,0-1.9-0.8-1.9-1.9C13.6,2.6,14.5,1.8,15.5,1.8C15.5,1.8,15.5,1.8,15.5,1.8z M4.5,8.1c1,0,1.9,0.8,1.9,1.9s-0.8,1.9-1.9,1.9
	c-1,0-1.9-0.8-1.9-1.9C2.6,8.9,3.4,8.1,4.5,8.1z"/>
</svg>
