<?xml version="1.0" encoding="utf-8"?>
<!-- Generator: Adobe Illustrator 22.1.0, SVG Export Plug-In . SVG Version: 6.00 Build 0)  -->
<svg version="1.1" id="Calque_1" xmlns="http://www.w3.org/2000/svg" xmlns:xlink="http://www.w3.org/1999/xlink" x="0px" y="0px"
	 viewBox="0 0 20 20" style="enable-background:new 0 0 20 20;" xml:space="preserve">
<style type="text/css">
	.st0{fill:#FFFFFF;}
</style>
<g>
	<path class="st0" d="M14.4,3.2h-0.8c-0.1-0.2-0.3-0.3-0.5-0.5V1.3c0-0.7-0.6-1.2-1.2-1.2H8.1c-0.7,0-1.2,0.6-1.2,1.2v1.4
		C6.7,2.8,6.5,3,6.4,3.2H5.6c-1.7,0-3.1,1.4-3.1,3.1v10.6c0,1.7,1.4,3.1,3.1,3.1h8.7c1.7,0,3.1-1.4,3.1-3.1V6.3
		C17.5,4.6,16.1,3.2,14.4,3.2z M8.8,1.3h2.5c0.3,0,0.6,0.3,0.6,0.6c0,0.3-0.3,0.6-0.6,0.6H8.8c-0.3,0-0.6-0.3-0.6-0.6
		C8.1,1.6,8.4,1.3,8.8,1.3z M16.2,16.9c0,1-0.8,1.9-1.9,1.9H5.6c-1,0-1.9-0.8-1.9-1.9V6.3c0-1,0.8-1.9,1.9-1.9h0.6
		c0,1,0.8,1.9,1.9,1.9h3.7c1,0,1.9-0.8,1.9-1.9h0.6c1,0,1.9,0.8,1.9,1.9V16.9L16.2,16.9z"/>
	<path class="st0" d="M13.7,8.8H6.3c-0.3,0-0.6,0.3-0.6,0.6S5.9,10,6.3,10h7.5c0.3,0,0.6-0.3,0.6-0.6S14.1,8.8,13.7,8.8z"/>
	<path class="st0" d="M13.7,11.3H6.3c-0.3,0-0.6,0.3-0.6,0.6c0,0.3,0.3,0.6,0.6,0.6h7.5c0.3,0,0.6-0.3,0.6-0.6
		C14.4,11.6,14.1,11.3,13.7,11.3z"/>
	<path class="st0" d="M13.7,13.8H6.3c-0.3,0-0.6,0.3-0.6,0.6c0,0.3,0.3,0.6,0.6,0.6h7.5c0.3,0,0.6-0.3,0.6-0.6
		C14.4,14.1,14.1,13.8,13.7,13.8z"/>
</g>
</svg>
