<?xml version="1.0" encoding="utf-8"?>
<!-- Generator: Adobe Illustrator 22.1.0, SVG Export Plug-In . SVG Version: 6.00 Build 0)  -->
<svg version="1.1" id="Calque_1" xmlns="http://www.w3.org/2000/svg" xmlns:xlink="http://www.w3.org/1999/xlink" x="0px" y="0px"
	 viewBox="0 0 20 20" style="enable-background:new 0 0 20 20;" xml:space="preserve">
<style type="text/css">
	.st0{fill:#6F7A8B;stroke:#6F7A8B;stroke-miterlimit:10;}
</style>
<g>
	<g transform="translate(-55.000000, -304.000000)">
		<g transform="translate(55.000000, 303.000000)">
			<path class="st0" d="M6.2,15.1L6,12.3c0-0.3-0.3-0.5-0.5-0.5c-0.3,0-0.5,0.3-0.5,0.6l0.3,3.9c0,0.4,0.6,0.6,0.9,0.3l2.3-2.3
				c0.2-0.2,0.2-0.5,0-0.7c-0.2-0.2-0.5-0.2-0.7,0L6.2,15.1z"/>
			<path class="st0" d="M6.7,12.2c-0.2,0.2-0.2,0.5,0,0.7c0.2,0.2,0.5,0.2,0.7,0l3.4-3.1c0.2-0.2,0.2-0.5,0-0.7
				c-0.2-0.2-0.5-0.2-0.7,0L6.7,12.2z"/>
			<path class="st0" d="M10.4,14.7l-6.7-4.4l11.7-5.4L10.4,14.7z M16.3,3.4L2.4,9.8C2,10,2,10.5,2.3,10.7l8,5.2
				c0.3,0.2,0.6,0.1,0.7-0.2L17,4.1C17.2,3.6,16.8,3.2,16.3,3.4z"/>
		</g>
	</g>
</g>
</svg>
