<?xml version="1.0" encoding="utf-8"?>
<!-- Generator: Adobe Illustrator 22.1.0, SVG Export Plug-In . SVG Version: 6.00 Build 0)  -->
<svg version="1.1" id="Calque_1" xmlns="http://www.w3.org/2000/svg" xmlns:xlink="http://www.w3.org/1999/xlink" x="0px" y="0px"
	 viewBox="0 0 20 20" style="enable-background:new 0 0 20 20;" xml:space="preserve">
<style type="text/css">
	.st0{fill:#FFFFFF;}
</style>
<path class="st0" d="M10,1c1.4,0,2.5,1.1,2.5,2.5S11.4,6,10,6S7.5,4.9,7.5,3.5C7.5,2.1,8.6,1,10,1z M19.2,14.6h-0.9v-2.7
	c0-1.2-1-2.2-2.2-2.2h-5V7.5c-0.7,0.2-1.4,0.2-2.1,0v2.2h-5c-1.2,0-2.2,1-2.2,2.2v2.7H0.8C0.4,14.6,0,15,0,15.5
	c0,0.2,0.1,0.3,0.1,0.4l2,2.8c0.3,0.4,0.8,0.4,1.1,0.2c0.1,0,0.1-0.1,0.2-0.2l2-2.8c0.3-0.4,0.2-0.9-0.2-1.1
	c-0.1-0.1-0.3-0.1-0.4-0.1H3.9v-2.7c0,0,0-0.1,0.1-0.1h5v2.8H8c-0.5,0-0.8,0.4-0.8,0.8c0,0.2,0.1,0.3,0.1,0.4l2,2.8
	c0.3,0.4,0.8,0.4,1.1,0.2c0.1-0.1,0.1-0.1,0.2-0.2l2-2.8c0.3-0.4,0.2-0.9-0.2-1.1c-0.1-0.1-0.3-0.1-0.4-0.1h-0.9v-2.8h5
	c0,0,0.1,0,0.1,0.1l0,0v2.7h-0.9c-0.5,0-0.8,0.4-0.8,0.8c0,0.2,0.1,0.3,0.1,0.4l2,2.8c0.3,0.4,0.8,0.4,1.1,0.2
	c0.1-0.1,0.1-0.1,0.2-0.2l2-2.8c0.3-0.4,0.2-0.9-0.2-1.1C19.5,14.7,19.3,14.6,19.2,14.6z"/>
</svg>
